<!DOCTYPE svg PUBLIC "-//W3C//DTD SVG 1.1//EN" "http://www.w3.org/Graphics/SVG/1.1/DTD/svg11.dtd">
<!-- Uploaded to: SVG Repo, www.svgrepo.com, Transformed by: SVG Repo Mixer Tools -->
<svg fill="#ffffff" height="800px" width="800px" version="1.1" id="Layer_1" xmlns="http://www.w3.org/2000/svg" xmlns:xlink="http://www.w3.org/1999/xlink" viewBox="0 0 512 512" xml:space="preserve" stroke="#ffffff">
<g id="SVGRepo_bgCarrier" stroke-width="0"/>
<g id="SVGRepo_tracerCarrier" stroke-linecap="round" stroke-linejoin="round"/>
<g id="SVGRepo_iconCarrier"> <g> <g> <path d="M495.304,211.478H267.13V100.174h217.043c9.22,0,16.696-7.475,16.696-16.696s-7.475-16.696-16.696-16.696H267.13V33.391 h217.043c9.22,0,16.696-7.475,16.696-16.696S493.394,0,484.174,0H83.478c-9.22,0-16.696,7.475-16.696,16.696 s7.475,16.696,16.696,16.696h16.696v33.391H83.478c-9.22,0-16.696,7.475-16.696,16.696s7.475,16.696,16.696,16.696h16.696v111.304 H16.696C7.475,211.478,0,218.953,0,228.174c0,48.235,13.787,95.057,39.871,135.404c23.421,36.227,55.667,65.73,93.694,85.836 v12.499c0,27.618,22.469,50.087,50.087,50.087h144.696c27.618,0,50.087-22.469,50.087-50.087v-12.499 c38.027-20.106,70.273-49.608,93.694-85.836C498.213,323.231,512,276.409,512,228.174 C512,218.953,504.525,211.478,495.304,211.478z M200.348,33.391h33.391v178.087h-33.391V33.391z M133.565,33.391h33.391v178.087 h-33.391V33.391z M354.566,424.042c-5.817,2.768-9.522,8.635-9.522,15.076v22.795c0,9.206-7.49,16.696-16.696,16.696H183.652 c-9.206,0-16.696-7.49-16.696-16.696v-22.795c0-6.441-3.705-12.308-9.522-15.076C87.154,390.6,40.068,321.471,34.047,244.87 h443.906C471.932,321.471,424.846,390.6,354.566,424.042z"/> </g> </g> </g>
</svg>